#!OML:ASF I:\Actors\actors\Patient Classification 2\Patient 1\Session 1\actor1.ASF
:FULLY-SPECIFIED
:DEGREES
124
root -0.981658 18.156 5.90467 0.485279 -3.46914 -4.52429
lowerback 1.40944 0.529124 2.50732
upperback -0.540286 0.774323 1.58906
thorax -1.33278 0.372192 0.203602
lowerneck -10.4408 -1.18786 -2.21699
upperneck 24.5598 -2.11757 3.52205
head 9.51581 -0.812945 1.35765
rclavicle -1.33966e-015 3.00662e-015
rhumerus -46.4701 -4.51229 -85.2914
rradius 40.9636
rwrist 21.8136
rhand -4.60834 -28.2658
rfingers 7.12502
rthumb 21.1697 -57.13
lclavicle -1.33966e-015 3.00662e-015
lhumerus -51.0511 -8.2693 93.3931
lradius 54.6985
lwrist 0.501105
lhand 2.29972 -23.0886
lfingers 7.12502
lthumb 27.7912 4.87664
rfemur 0 0 0
rtibia 0
rfoot 0 0
rtoes 0
lfemur 17.8527 -7.50415 -13.1513
ltibia -17.7719
lfoot -5.83486 23.7705
ltoes -11.0444
125
root -0.981903 18.1547 5.90855 0.447868 -3.52297 -4.50417
lowerback 1.37959 0.533481 2.50664
upperback -0.504332 0.777593 1.56017
thorax -1.2787 0.37439 0.174796
lowerneck -10.6123 -1.10032 -2.08422
upperneck 25.0391 -2.0085 3.42017
head 9.71273 -0.756703 1.31548
rclavicle 6.91592e-015 2.48481e-015
rhumerus -46.4543 -4.4517 -85.2892
rradius 40.9222
rwrist 21.818
rhand -4.59083 -28.195
rfingers 7.12502
rthumb 21.1865 -57.0573
lclavicle 6.91592e-015 2.48481e-015
lhumerus -51.8282 -9.07261 93.5214
lradius 55.9607
lwrist -1.85995
lhand 2.20225 -23.4067
lfingers 7.12502
lthumb 27.698 4.57355
rfemur 0 0 0
rtibia 0
rfoot 0 0
rtoes 0
lfemur 17.917 -7.53453 -13.1973
ltibia -17.7552
lfoot -5.89782 23.8427
ltoes -10.9746
126
root -0.983337 18.1542 5.91128 0.403968 -3.59344 -4.48933
lowerback 1.34635 0.537046 2.48038
upperback -0.444616 0.778699 1.54152
thorax -1.19886 0.376117 0.171008
lowerneck -10.7778 -1.0001 -1.93477
upperneck 25.5341 -1.86433 3.23892
head 9.91412 -0.691659 1.24698
rclavicle 3.43049e-015 9.0944e-015
rhumerus -46.4307 -4.4165 -85.2801
rradius 40.9592
rwrist 21.7517
rhand -4.62045 -28.1679
rfingers 7.12502
rthumb 21.1581 -57.0333
lclavicle 3.43049e-015 9.0944e-015
lhumerus -52.7124 -9.87254 93.622
lradius 57.4764
lwrist -5.0015
lhand 2.49251 -23.8877
lfingers 7.12502
lthumb 27.9755 4.0476
rfemur 0 0 0
rtibia 0
rfoot 0 0
rtoes 0
lfemur 18.0103 -7.56913 -13.2286
ltibia -17.7889
lfoot -5.96535 23.93
ltoes -10.8526
127
root -0.985148 18.153 5.91451 0.339307 -3.73143 -4.49871
lowerback 1.34755 0.554928 2.47343
upperback -0.389279 0.800736 1.52625
thorax -1.14233 0.387921 0.159039
lowerneck -10.9532 -0.895129 -1.81892
upperneck 26.067 -1.71865 3.10535
head 10.1342 -0.624053 1.20148
rclavicle -3.77215e-015 -7.15625e-015
rhumerus -46.4576 -4.42179 -85.2772
rradius 41.0643
rwrist 21.6853
rhand -4.63577 -27.9924
rfingers 7.12502
rthumb 21.1433 -56.8595
lclavicle -3.77215e-015 -7.15625e-015
lhumerus -53.8048 -10.7249 93.6819
lradius 59.3069
lwrist -8.79
lhand 3.20684 -24.6186
lfingers 7.12502
lthumb 28.6582 3.20345
rfemur 0 0 0
rtibia 0
rfoot 0 0
rtoes 0
lfemur 18.2285 -7.57147 -13.2385
ltibia -17.9818
lfoot -5.99351 24.0602
ltoes -10.6701
128
root -0.979617 18.1477 5.91534 0.185093 -3.86778 -4.7177
lowerback 1.53899 0.5591 2.83199
upperback -0.338758 0.818974 1.51762
thorax -1.1927 0.394206 -0.0524878
lowerneck -11.1523 -0.771701 -1.62931
upperneck 26.6093 -1.55154 2.93243
head 10.3634 -0.544063 1.1321
rclavicle -1.76858e-015 -2.66868e-014
rhumerus -46.4916 -4.42665 -85.3601
rradius 41.1931
rwrist 21.5655
rhand -4.56763 -27.9306
rfingers 7.12502
rthumb 21.2088 -56.7904
lclavicle -1.76858e-015 -2.66868e-014
lhumerus -55.0388 -11.5848 93.6207
lradius 61.3828
lwrist -13.1708
lhand 4.47318 -25.6957
lfingers 7.12502
lthumb 29.8674 1.91546
rfemur 0 0 0
rtibia 0
rfoot 0 0
rtoes 0
lfemur 18.4979 -7.53988 -13.0541
ltibia -18.0191
lfoot -6.044 24.1513
ltoes -10.7877
129
root -0.958204 18.1384 5.90963 -0.0706198 -3.91499 -5.33048
lowerback 2.01258 0.524701 3.87995
upperback -0.294988 0.817885 1.5456
thorax -1.40011 0.38329 -0.614147
lowerneck -11.2849 -0.635961 -1.36067
upperneck 27.1081 -1.35716 2.66603
head 10.5647 -0.455538 1.01868
rclavicle -2.11704e-015 1.19271e-014
rhumerus -46.5468 -4.42565 -85.488
rradius 41.3735
rwrist 21.3984
rhand -4.52128 -28.1989
rfingers 7.12502
rthumb 21.2533 -57.0537
lclavicle -2.11704e-015 1.19271e-014
lhumerus -56.2475 -12.3667 93.3142
lradius 63.1533
lwrist -18.5288
lhand 5.38182 -28.2922
lfingers 7.12502
lthumb 30.7341 -0.840395
rfemur 0 0 0
rtibia 0
rfoot 0 0
rtoes 0
lfemur 18.8901 -7.50598 -12.4891
ltibia -18.0194
lfoot -6.03536 24.1454
ltoes -11.1977
